<?xml version="1.0" standalone="no"?>
<!DOCTYPE svg PUBLIC "-//W3C//DTD SVG 20010904//EN"
 "http://www.w3.org/TR/2001/REC-SVG-20010904/DTD/svg10.dtd">
<svg version="1.0" xmlns="http://www.w3.org/2000/svg"
 width="512.000000pt" height="512.000000pt" viewBox="0 0 512.000000 512.000000"
 preserveAspectRatio="xMidYMid meet">
<metadata>
Created by potrace 1.14, written by Peter Selinger 2001-2017
</metadata>
<g transform="translate(0.000000,512.000000) scale(0.100000,-0.100000)"
fill="#000000" stroke="none">
<path d="M2378 4955 c-1 -1 -34 -6 -73 -9 -38 -4 -77 -8 -85 -10 -8 -1 -37 -6
-65 -11 -304 -47 -641 -181 -920 -366 -73 -48 -139 -94 -146 -101 -8 -7 -27
-24 -44 -37 -69 -53 -223 -202 -295 -286 -70 -82 -210 -268 -210 -279 0 -3
-13 -24 -29 -48 -94 -142 -227 -447 -266 -612 -68 -283 -80 -388 -79 -661 0
-104 6 -228 13 -275 7 -47 15 -101 17 -120 8 -56 65 -280 86 -340 99 -278 219
-501 382 -710 77 -100 93 -117 216 -240 253 -252 567 -447 910 -563 272 -92
492 -125 795 -122 229 3 237 4 445 42 14 2 52 11 85 19 33 8 69 16 81 19 151
34 459 167 605 261 24 16 55 34 67 41 69 37 272 203 378 308 258 257 441 540
565 872 37 101 82 256 94 322 3 19 7 37 9 40 2 3 7 31 11 61 4 30 13 96 20
145 13 94 13 431 0 545 -6 53 -51 284 -69 351 -76 291 -246 623 -446 874 -35
44 -116 132 -180 195 -371 371 -844 605 -1375 681 -71 10 -488 22 -497 14z"/>
</g>
</svg>
