<svg id="Logo" xmlns="http://www.w3.org/2000/svg" width="1528" height="1143" viewBox="0 0 1528 1143">
  <metadata><?xpacket begin="﻿" id="W5M0MpCehiHzreSzNTczkc9d"?>
<x:xmpmeta xmlns:x="adobe:ns:meta/" x:xmptk="Adobe XMP Core 5.6-c140 79.160451, 2017/05/06-01:08:21        ">
   <rdf:RDF xmlns:rdf="http://www.w3.org/1999/02/22-rdf-syntax-ns#">
      <rdf:Description rdf:about=""/>
   </rdf:RDF>
</x:xmpmeta>
                                                                                                    
                                                                                                    
                                                                                                    
                                                                                                    
                                                                                                    
                                                                                                    
                                                                                                    
                                                                                                    
                                                                                                    
                                                                                                    
                                                                                                    
                                                                                                    
                                                                                                    
                                                                                                    
                                                                                                    
                                                                                                    
                                                                                                    
                                                                                                    
                                                                                                    
                                                                                                    
                           
<?xpacket end="w"?></metadata>
<defs>
    <style>
      .cls-1, .cls-2 {
        fill-rule: evenodd;
      }

      .cls-2 {
        fill: #f4b100;
      }
    </style>
  </defs>
  <path id="_" data-name="{    }" class="cls-1" d="M4.057,507.474V634.3q95.055,0,95.055,63.412V887.948q0,253.638,253.48,253.652V1014.77q-126.75,0-126.74-126.822V666.005q0-63.4-63.37-95.118,63.36-31.7,63.37-95.119V253.825Q225.852,127,352.592,127V0.175q-253.485,0-253.48,253.65V444.062q0,63.417-95.055,63.412h0ZM1429.88,444.062V253.825q0-253.64-253.48-253.65V127q126.735,0,126.74,126.825V475.768q0,63.417,63.37,95.119-63.375,31.716-63.37,95.118V887.948q0,126.836-126.74,126.822V1141.6q253.47,0,253.48-253.652V697.711q0-63.4,95.06-63.412V507.474q-95.055,0-95.06-63.412h0Z"/>
  <path class="cls-2" d="M521.605,289.363l90.889-52.489L1005.12,917.1l-90.892,52.489Z"/>
  <path id="Rectangle_1_copy" data-name="Rectangle 1 copy" class="cls-2" d="M914.285,236.738l90.925,52.508L612.438,969.721l-90.922-52.508Z"/>
</svg>
