<svg height="1143" viewBox="0 0 1528 1143" width="1528" xmlns="http://www.w3.org/2000/svg"><g fill-rule="evenodd"><path d="m4.057 507.474v126.826q95.055 0 95.055 63.412v190.236q0 253.638 253.48 253.652v-126.83q-126.75 0-126.74-126.822v-221.943q0-63.4-63.37-95.118 63.36-31.7 63.37-95.119v-221.943q0-126.825 126.74-126.825v-126.825q-253.485 0-253.48 253.65v190.237q0 63.417-95.055 63.412zm1425.823-63.412v-190.237q0-253.64-253.48-253.65v126.825q126.735 0 126.74 126.825v221.943q0 63.417 63.37 95.119-63.375 31.716-63.37 95.118v221.943q0 126.836-126.74 126.822v126.83q253.47 0 253.48-253.652v-190.237q0-63.4 95.06-63.412v-126.825q-95.055 0-95.06-63.412z"/><g fill="#f4b100"><path d="m521.605 289.363 90.889-52.489 392.626 680.226-90.892 52.489z"/><path d="m914.285 236.738 90.925 52.508-392.772 680.475-90.922-52.508z"/></g></g></svg>