<svg width="38" height="38" viewBox="0 0 38 38" fill="none" xmlns="http://www.w3.org/2000/svg">
<path d="M35.5855 28.2763C37.1233 25.5327 38 22.3687 38 19C38 8.50658 29.4933 0 19 0C8.50658 0 0 8.50658 0 19C0 22.3687 0.87673 25.5327 2.41447 28.2763H35.5855Z" fill="#F64942"/>
<path d="M31.6737 4.84433C28.3114 1.83197 23.8696 0 19 0C8.50658 0 0 8.50658 0 19C0 19.1187 0.00108824 19.2371 0.00325529 19.3553C0.353445 18.7065 0.75993 17.9908 1.22977 17.1746C4.61456 11.2948 11.8468 11.0141 15.0396 10.8902C15.2555 10.8818 15.453 10.8742 15.6296 10.8655C21.444 10.5813 27.7399 8.90651 31.6737 4.84433Z" fill="#5B95BF"/>
<path d="M34.9281 8.6377C33.7028 9.29688 32.9231 10.1814 32.0476 11.1748C29.823 13.6986 26.9793 16.9248 14.6335 18.9414C8.28416 20.4939 5.93579 26.2714 8.37032 31.0435L11.396 31.6236L15.036 33.4625C15.4123 33.5839 15.7571 33.6974 16.076 33.8024C19.3597 34.8836 19.889 35.0579 23.6216 33.5173C28.3554 31.5632 30.7404 31.6706 32.8454 32.0117C36.0418 28.6119 38 24.0346 38 19C38 15.1771 36.871 11.6179 34.9281 8.6377Z" fill="#F4CE45"/>
<path d="M37.5228 23.2504C35.5924 31.6974 28.0322 38 19 38C11.3623 38 4.77719 33.4933 1.75867 26.9942C5.36826 25.8881 9.09971 25.1058 12.694 25.0951C13.8944 25.0916 15.4201 25.3765 17.1541 25.7002C21.0788 26.4331 26.0701 27.3651 30.7688 25.6021C31.6068 25.2877 32.33 24.992 32.9951 24.7201C34.5792 24.0724 35.8334 23.5596 37.5228 23.2504Z" fill="#EF90A4"/>
<path fill-rule="evenodd" clip-rule="evenodd" d="M19.152 6.14685C19.8034 6.14685 20.3621 6.53937 20.6073 7.10042C20.6318 7.15641 20.6862 7.18711 20.7409 7.18711C20.7799 7.18711 20.819 7.17128 20.8472 7.13769C21.1459 6.78089 21.5917 6.56736 22.0648 6.56736C22.2007 6.56736 22.339 6.58512 22.4764 6.6218C23.1067 6.79075 23.5452 7.31588 23.6359 7.92272C23.6467 7.9953 23.7114 8.04242 23.7784 8.04242C23.8056 8.04242 23.8334 8.03451 23.8581 8.01731C24.1266 7.82909 24.4471 7.72849 24.7732 7.72849C25.0421 7.72849 25.3147 7.79701 25.5646 7.94126C26.1297 8.26753 26.4173 8.88827 26.3479 9.49779C26.338 9.5839 26.4099 9.65514 26.4905 9.65514C26.5062 9.65514 26.5222 9.65245 26.5381 9.64665C26.7142 9.58256 26.8994 9.55031 27.0843 9.55031C27.4904 9.55031 27.8962 9.70497 28.2061 10.015C28.6674 10.4765 28.7847 11.1505 28.56 11.7212C28.5235 11.8137 28.5957 11.9148 28.6925 11.9148C28.6968 11.9148 28.7008 11.9147 28.7049 11.9143C28.7515 11.9102 28.7979 11.9081 28.8442 11.9081C29.3932 11.9081 29.9267 12.1921 30.2208 12.7018C30.5471 13.2669 30.4858 13.9483 30.121 14.4414C30.0595 14.5246 30.1094 14.6476 30.2112 14.6655C30.801 14.7692 31.3064 15.2021 31.4718 15.8186C31.6408 16.4489 31.4052 17.0913 30.9251 17.4732C30.844 17.5375 30.8602 17.6692 30.9542 17.713C31.4969 17.9657 31.8733 18.5148 31.8733 19.1529C31.8733 19.8045 31.4809 20.3631 30.92 20.6083C30.8238 20.6504 30.8022 20.7809 30.8825 20.8483C31.3418 21.2329 31.5635 21.8609 31.3983 22.4776C31.2293 23.108 30.7044 23.5464 30.0975 23.6372C29.9954 23.6524 29.9437 23.7746 30.003 23.8594C30.3465 24.3496 30.3982 25.0134 30.079 25.5662C29.7848 26.0756 29.2513 26.3596 28.7026 26.3596C28.6428 26.3596 28.5825 26.3561 28.5227 26.3495C28.5174 26.3487 28.5121 26.3485 28.507 26.3485C28.4118 26.3485 28.3401 26.4473 28.3738 26.5395C28.5787 27.1022 28.4569 27.7565 28.0054 28.2077C27.6956 28.5178 27.2898 28.6726 26.8839 28.6726C26.6853 28.6726 26.4869 28.6353 26.2995 28.5616C26.2828 28.555 26.2658 28.552 26.2493 28.552C26.17 28.552 26.0988 28.6214 26.1064 28.7068C26.1589 29.3031 25.8716 29.9038 25.3189 30.223C25.0691 30.3671 24.7965 30.4355 24.5276 30.4355C24.1882 30.4355 23.8546 30.3266 23.5795 30.1229C23.5544 30.1044 23.5259 30.096 23.4977 30.096C23.432 30.096 23.3679 30.1419 23.3554 30.2131C23.2517 30.8028 22.8189 31.3088 22.2025 31.4737C22.0648 31.5107 21.9268 31.5281 21.7909 31.5281C21.3042 31.5281 20.8467 31.3024 20.548 30.927C20.52 30.8918 20.4793 30.875 20.4385 30.875C20.3856 30.875 20.3329 30.9032 20.3084 30.9561C20.0555 31.4988 19.5065 31.8755 18.8685 31.8755C18.2169 31.8755 17.6584 31.483 17.4132 30.9219C17.3887 30.8659 17.3343 30.8353 17.2796 30.8353C17.2406 30.8353 17.2014 30.851 17.1732 30.8844C16.8746 31.2414 16.4288 31.4549 15.9557 31.4549C15.8198 31.4549 15.6815 31.4372 15.5441 31.4005C14.9138 31.2315 14.4753 30.7063 14.3846 30.0996C14.3738 30.0269 14.3091 29.9798 14.2421 29.9798C14.2149 29.9798 14.1871 29.9876 14.1624 30.0051C13.8938 30.1933 13.5734 30.2939 13.2473 30.2939C12.9784 30.2939 12.7058 30.2252 12.4558 30.0808C11.8907 29.7546 11.6033 29.1339 11.6726 28.5244C11.6824 28.4382 11.6106 28.3673 11.5299 28.3673C11.5143 28.3673 11.4983 28.3698 11.4824 28.3757C11.3064 28.4398 11.1212 28.4719 10.9363 28.4719C10.5301 28.4719 10.1243 28.3171 9.81444 28.0073C9.35305 27.5457 9.23588 26.8716 9.46059 26.3009C9.49707 26.2086 9.42487 26.1073 9.32797 26.1073C9.32371 26.1073 9.31966 26.1076 9.31561 26.1078C9.26909 26.1119 9.22276 26.1142 9.17622 26.1142C8.62737 26.1142 8.09378 25.8302 7.79956 25.3204C7.47332 24.7552 7.5347 24.0739 7.89957 23.5808C7.96096 23.4976 7.91115 23.3746 7.80921 23.3566C7.21963 23.253 6.71402 22.8201 6.54878 22.2036C6.37985 21.5733 6.61538 20.9309 7.09549 20.5492C7.17638 20.4847 7.16017 20.353 7.06636 20.3094C6.52367 20.0567 6.14722 19.5076 6.14722 18.8693C6.14722 18.2179 6.5395 17.6591 7.10071 17.4139C7.19665 17.3718 7.21828 17.2413 7.13798 17.1741C6.67871 16.7895 6.45689 16.1613 6.62214 15.5446C6.79106 14.9142 7.31615 14.4757 7.92293 14.385C8.02525 14.3697 8.07678 14.2475 8.01753 14.1628C7.67388 13.6726 7.62235 13.0088 7.94145 12.4562C8.23567 11.9465 8.76906 11.6627 9.31794 11.6627C9.37777 11.6627 9.43781 11.666 9.49785 11.6729C9.50307 11.6735 9.50847 11.6737 9.51369 11.6737C9.60866 11.6737 9.68028 11.5748 9.64669 11.4828C9.44166 10.9202 9.56367 10.2656 10.0149 9.81443C10.3249 9.50435 10.7307 9.3499 11.1367 9.3499C11.3351 9.3499 11.5336 9.38678 11.7211 9.46073C11.7377 9.46729 11.7546 9.47018 11.7712 9.47018C11.8504 9.47018 11.9216 9.40066 11.9141 9.31552C11.8616 8.71912 12.1489 8.11849 12.7016 7.79934C12.9514 7.65512 13.224 7.58657 13.4929 7.58657C13.8323 7.58657 14.1661 7.69565 14.441 7.89936C14.4661 7.9177 14.4947 7.92619 14.5228 7.92619C14.5885 7.92619 14.6526 7.88044 14.6651 7.809C14.7688 7.21936 15.2016 6.71371 15.818 6.54843C15.9557 6.51155 16.0937 6.49399 16.2296 6.49399C16.7163 6.49399 17.1738 6.71989 17.4725 7.0952C17.5005 7.13054 17.5412 7.14734 17.5819 7.14734C17.6348 7.14734 17.6875 7.11897 17.7123 7.06604C17.965 6.52333 18.514 6.14685 19.152 6.14685Z" fill="white"/>
<path fill-rule="evenodd" clip-rule="evenodd" d="M24.9137 25.236C23.4825 25.236 23.5948 23.2153 24.9137 23.2153C26.2326 23.2153 26.3451 25.236 24.9137 25.236ZM13.0866 25.236C11.6554 25.236 11.7677 23.2153 13.0866 23.2153C14.4056 23.2153 14.5179 25.236 13.0866 25.236ZM29.2379 17.7708H28.753C27.8836 17.7708 27.1367 17.251 26.8026 16.5061C26.4682 17.251 25.7214 17.7708 24.852 17.7708C23.9825 17.7708 23.2358 17.251 22.9016 16.5061C22.5673 17.251 21.8205 17.7708 20.951 17.7708C20.0816 17.7708 19.3348 17.251 19.0005 16.5061C18.6663 17.251 17.9194 17.7708 17.0501 17.7708C16.1805 17.7708 15.4339 17.251 15.0994 16.5061C14.7652 17.251 14.0185 17.7708 13.149 17.7708C12.2794 17.7708 11.5328 17.251 11.1985 16.5061C10.8643 17.251 10.1175 17.7708 9.24789 17.7708H8.76853C8.04124 18.5533 8.50258 19.2144 10.2986 19.2144V23.2327C10.2986 27.0091 14.6472 28.8974 18.9958 28.8974C23.3443 28.8974 27.6928 27.0091 27.6928 23.2327V19.2144C29.4905 19.2144 29.9596 18.5533 29.2379 17.7708Z" fill="black"/>
<path fill-rule="evenodd" clip-rule="evenodd" d="M19.139 4.84338C18.5022 4.84338 17.8927 5.04293 17.3866 5.39388C17.035 5.2569 16.6568 5.18445 16.2674 5.18445C15.9989 5.18445 15.7307 5.21991 15.4701 5.28973C14.8541 5.45475 14.3164 5.80608 13.918 6.2771C13.8053 6.26438 13.6919 6.25792 13.5782 6.25792C13.0405 6.25792 12.5091 6.40057 12.0419 6.67032C11.4899 6.98902 11.0615 7.46723 10.7986 8.02495C10.1533 8.12207 9.55784 8.42121 9.08778 8.89127C8.63631 9.34256 8.34625 9.91621 8.23698 10.5238C7.64629 10.7839 7.14074 11.2266 6.80915 11.8012C6.49028 12.3534 6.35844 12.9819 6.40984 13.5965C5.90829 13.9981 5.5346 14.5548 5.36122 15.2015C5.19617 15.8176 5.23146 16.4588 5.44013 17.0393C5.05978 17.5569 4.84277 18.1917 4.84277 18.8609C4.84277 19.4987 5.0427 20.1087 5.39461 20.6154C5.16109 21.2139 5.11574 21.8829 5.28894 22.5298C5.45417 23.1457 5.80529 23.6832 6.27611 24.0815C6.20555 24.72 6.33491 25.3782 6.66974 25.958C6.98767 26.5088 7.46551 26.9387 8.02492 27.2022C8.12222 27.837 8.41738 28.4389 8.89069 28.9124C9.34159 29.3631 9.90764 29.6567 10.5228 29.7656C10.7812 30.3526 11.2217 30.8565 11.8004 31.1906C12.2678 31.4607 12.7992 31.6033 13.3369 31.6033C13.4244 31.6033 13.5113 31.5995 13.5976 31.5924C13.999 32.0928 14.5552 32.4657 15.2009 32.6387C15.4615 32.7084 15.7298 32.7438 15.9982 32.7438C16.3586 32.7438 16.7111 32.6812 17.0417 32.5619C17.5588 32.9409 18.1924 33.157 18.8603 33.157C19.4971 33.157 20.1066 32.9576 20.6127 32.6065C20.9642 32.7438 21.3427 32.816 21.7319 32.816C22.0003 32.816 22.2686 32.7808 22.5292 32.7106C23.1451 32.5457 23.6829 32.1943 24.0811 31.7234C24.194 31.7361 24.3074 31.7427 24.421 31.7427C24.9588 31.7427 25.4901 31.5998 25.9573 31.3302C26.5096 31.0115 26.9377 30.5332 27.2007 29.9756C27.8462 29.8784 28.4415 29.5792 28.9114 29.1092C29.3629 28.6578 29.6529 28.0843 29.7624 27.4768C30.3529 27.2168 30.8585 26.774 31.1902 26.1995C31.5091 25.6472 31.6408 25.0188 31.5894 24.4042C32.091 24.0026 32.4647 23.4458 32.638 22.799C32.8031 22.1828 32.7679 21.5417 32.5592 20.9614C32.9394 20.4435 33.1565 19.809 33.1565 19.1396C33.1565 18.502 32.9564 17.8917 32.6048 17.3853C32.8381 16.7868 32.8834 16.1175 32.7102 15.4707C32.5452 14.8547 32.1941 14.3173 31.7232 13.919C31.7938 13.2804 31.6644 12.6224 31.3295 12.0425C31.0115 11.4916 30.5338 11.062 29.9744 10.7983C29.8771 10.1636 29.582 9.56167 29.1085 9.08836C28.6576 8.63746 28.0916 8.34382 27.4765 8.23494C27.2184 7.64801 26.7778 7.14401 26.199 6.80976C25.7316 6.54001 25.2003 6.39736 24.6625 6.39736C24.5751 6.39736 24.488 6.40095 24.4017 6.40817C24.0003 5.90794 23.4441 5.53481 22.7984 5.36181C22.5378 5.29201 22.2695 5.25652 22.0013 5.25652C21.6407 5.25652 21.2882 5.31932 20.9576 5.43864C20.4405 5.05963 19.8069 4.84338 19.139 4.84338ZM19.1394 6.36077C19.7795 6.36077 20.3285 6.74642 20.5694 7.2977C20.5934 7.3527 20.6469 7.38287 20.7006 7.38287C20.739 7.38287 20.7775 7.36732 20.8052 7.33431C21.0986 6.98375 21.5366 6.77394 22.0016 6.77394C22.1351 6.77394 22.2709 6.79139 22.406 6.82744C23.0253 6.99342 23.4561 7.50939 23.5453 8.10561C23.5559 8.17692 23.6195 8.22321 23.6853 8.22321C23.7121 8.22321 23.7394 8.21543 23.7636 8.19856C24.0275 8.0136 24.3424 7.91477 24.6628 7.91477C24.927 7.91477 25.1949 7.98211 25.4405 8.12382C25.9958 8.44439 26.2785 9.05427 26.2101 9.65315C26.2005 9.73773 26.2709 9.80773 26.3502 9.80773C26.3657 9.80773 26.3814 9.80509 26.3971 9.79939C26.5701 9.73642 26.752 9.70472 26.9336 9.70472C27.3326 9.70472 27.7314 9.85667 28.0359 10.1613C28.4894 10.6147 28.6044 11.2769 28.3837 11.8377C28.3478 11.9285 28.4187 12.0279 28.5139 12.0279C28.5182 12.0279 28.522 12.0277 28.5261 12.0274C28.5719 12.0234 28.6173 12.0213 28.6631 12.0213C29.2025 12.0213 29.7266 12.3003 30.0157 12.8011C30.3364 13.3564 30.2761 14.0258 29.9177 14.5103C29.8571 14.592 29.9063 14.7129 30.0063 14.7305C30.5857 14.8324 31.0825 15.2577 31.2449 15.8634C31.4108 16.4827 31.1795 17.1139 30.7075 17.4891C30.6283 17.5522 30.644 17.6816 30.7362 17.7247C31.2694 17.973 31.6393 18.5125 31.6393 19.1394C31.6393 19.7796 31.254 20.3284 30.7027 20.5693C30.6082 20.6107 30.587 20.7389 30.666 20.8051C31.1172 21.183 31.3351 21.8001 31.1727 22.406C31.0067 23.0253 30.4907 23.4561 29.8946 23.5453C29.794 23.5603 29.7434 23.6803 29.8016 23.7636C30.1393 24.2452 30.19 24.8974 29.8764 25.4405C29.5873 25.9411 29.0632 26.2202 28.5238 26.2202C28.465 26.2202 28.4058 26.2167 28.347 26.2101C28.3419 26.2096 28.3366 26.2091 28.3318 26.2091C28.2381 26.2091 28.1679 26.3064 28.2008 26.3971C28.4022 26.9496 28.2824 27.5925 27.8388 28.0359C27.5343 28.3406 27.1355 28.4926 26.7368 28.4926C26.5417 28.4926 26.3467 28.4562 26.1625 28.3837C26.1463 28.3771 26.1296 28.3741 26.1131 28.3741C26.0353 28.3741 25.9654 28.4425 25.9728 28.5263C26.0244 29.112 25.7422 29.7023 25.1991 30.0157C24.9536 30.1575 24.6857 30.2249 24.4215 30.2249C24.088 30.2249 23.7602 30.1178 23.4899 29.9176C23.4653 29.8994 23.4372 29.891 23.4095 29.891C23.345 29.891 23.282 29.9364 23.2697 30.0063C23.1678 30.5857 22.7425 31.0827 22.1368 31.2448C22.0016 31.2811 21.8659 31.2983 21.7324 31.2983C21.2542 31.2983 20.8046 31.0764 20.5111 30.7075C20.4836 30.6731 20.4436 30.6566 20.4036 30.6566C20.3516 30.6566 20.2998 30.6842 20.2757 30.7362C20.0272 31.2694 19.4877 31.6393 18.8608 31.6393C18.2205 31.6393 17.6718 31.254 17.4309 30.7027C17.4068 30.6477 17.3533 30.6176 17.2996 30.6176C17.2613 30.6176 17.2228 30.6328 17.1951 30.666C16.9016 31.0163 16.4636 31.2264 15.9987 31.2264C15.8651 31.2264 15.7293 31.2089 15.5942 31.1727C14.9749 31.0067 14.5441 30.4907 14.4549 29.8948C14.4443 29.8231 14.3807 29.777 14.3149 29.777C14.2882 29.777 14.2608 29.7846 14.2366 29.8019C13.9727 29.9868 13.6578 30.0856 13.3374 30.0856C13.0732 30.0856 12.8053 30.0182 12.5597 29.8763C12.0044 29.5559 11.722 28.9459 11.7901 28.347C11.7998 28.2624 11.7292 28.1927 11.6499 28.1927C11.6345 28.1927 11.6188 28.195 11.6032 28.2008C11.4302 28.2639 11.2483 28.2955 11.0666 28.2955C10.6675 28.2955 10.2687 28.1435 9.96426 27.839C9.5109 27.3856 9.39573 26.7234 9.61654 26.1625C9.65241 26.0718 9.58145 25.9722 9.48622 25.9722C9.48207 25.9722 9.47806 25.9725 9.47409 25.9727C9.42836 25.9768 9.38284 25.9788 9.33714 25.9788C8.79781 25.9788 8.27352 25.6999 7.98441 25.199C7.66382 24.6438 7.72414 23.9744 8.08268 23.4899C8.143 23.4081 8.09405 23.2873 7.99389 23.2697C7.41456 23.1678 6.91775 22.7425 6.75536 22.1368C6.58938 21.5174 6.82083 20.8863 7.29258 20.5113C7.37208 20.4479 7.35614 20.3186 7.26396 20.2757C6.73071 20.0274 6.3608 19.4879 6.3608 18.8608C6.3608 18.2207 6.74627 17.6718 7.29773 17.4308C7.39199 17.3895 7.41325 17.2613 7.33433 17.1952C6.88304 16.8174 6.66508 16.2001 6.82746 15.5942C6.99345 14.9748 7.50941 14.5441 8.10563 14.4549C8.20615 14.4399 8.25682 14.3198 8.19858 14.2366C7.86091 13.7549 7.81027 13.1027 8.12385 12.5598C8.41292 12.0591 8.93707 11.7802 9.47637 11.7802C9.53517 11.7802 9.59417 11.7834 9.65317 11.7902C9.65829 11.7908 9.66358 11.791 9.66872 11.791C9.76205 11.791 9.83243 11.6939 9.79942 11.6034C9.59797 11.0506 9.71784 10.4075 10.1612 9.96424C10.4658 9.65958 10.8646 9.50783 11.2635 9.50783C11.4585 9.50783 11.6535 9.54406 11.8377 9.61672C11.854 9.62318 11.8707 9.62601 11.887 9.62601C11.9648 9.62601 12.0348 9.55772 12.0274 9.47406C11.9758 8.8881 12.258 8.29796 12.8012 7.98439C13.0466 7.84267 13.3145 7.77534 13.5787 7.77534C13.9122 7.77534 14.2402 7.88252 14.5103 8.08266C14.535 8.10067 14.563 8.10903 14.5907 8.10903C14.6552 8.10903 14.7182 8.06406 14.7306 7.99386C14.8324 7.41454 15.2577 6.91773 15.8634 6.75534C15.9987 6.71911 16.1343 6.70186 16.2678 6.70186C16.746 6.70186 17.1956 6.92381 17.4891 7.29256C17.5166 7.32729 17.5566 7.34378 17.5966 7.34378C17.6486 7.34378 17.7004 7.31589 17.7247 7.26393C17.973 6.73069 18.5125 6.36077 19.1394 6.36077Z" fill="black"/>
</svg>
